<svg width="180" height="180" viewBox="0 0 180 180" fill="none" xmlns="http://www.w3.org/2000/svg">
  <rect width="180" height="180" rx="40" fill="#0a1628"/>
  <g transform="translate(34, 28)">
    <path d="M17 0H63C78.464 0 91 12.536 91 28C91 37.5 86 46 78 51C91.5 57.5 101 71 101 86C101 107.54 83.54 125 62 125H17V0Z" fill="#00f0ff"/>
    <path d="M38 18H58C66.284 18 73 24.716 73 33C73 41.284 66.284 48 58 48H38V18Z" fill="#0a1628"/>
    <path d="M38 66H60C72.15 66 82 75.85 82 88C82 100.15 72.15 110 60 110H38V66Z" fill="#0a1628"/>
  </g>
</svg>