<svg width="512" height="512" viewBox="0 0 512 512" fill="none" xmlns="http://www.w3.org/2000/svg">
  <!-- Background -->
  <rect width="512" height="512" rx="108" fill="#0a1628"/>

  <!-- Modern geometric B mark -->
  <g transform="translate(96, 80)">
    <!-- Main B shape with gradient effect -->
    <path d="M48 0H180C224.183 0 260 35.817 260 80C260 106.5 246.5 130 226 144C264 162 290 200 290 244C290 302.02 243.02 352 185 352H48V0Z" fill="#00f0ff"/>

    <!-- Top cutout -->
    <path d="M108 52H165C188.196 52 207 70.804 207 94C207 117.196 188.196 136 165 136H108V52Z" fill="#0a1628"/>

    <!-- Bottom cutout -->
    <path d="M108 188H170C201.48 188 227 213.52 227 245C227 276.48 201.48 302 170 302H108V188Z" fill="#0a1628"/>
  </g>

  <!-- Subtle corner accent -->
  <circle cx="432" cy="80" r="24" fill="#00f0ff" opacity="0.4"/>
  <circle cx="432" cy="80" r="12" fill="#00f0ff"/>
</svg>